<svg width="61" height="92" viewBox="0 0 61 92" fill="none" xmlns="http://www.w3.org/2000/svg">
<path d="M32.7893 4.20078C34.1795 2.35091 37.2772 2.44772 38.3245 4.37378L45.2664 17.1403C45.7269 17.9873 45.6512 19.0008 45.0656 19.828L28.5149 43.2058C27.9021 44.0714 26.8223 44.6047 25.6826 44.6047L8.12768 44.6047C5.63386 44.6047 4.22581 42.2077 5.62556 40.3452L32.7893 4.20078Z" fill="#37AEFE"/>
<path d="M32.7893 87.676C34.1795 89.5259 37.2772 89.429 38.3245 87.503L45.2664 74.7364C45.7269 73.8895 45.6512 72.876 45.0656 72.0488L28.5149 48.671C27.9021 47.8054 26.8223 47.272 25.6826 47.272L8.12768 47.272C5.63386 47.272 4.22581 49.6691 5.62556 51.5316L32.7893 87.676Z" fill="#37AEFE"/>
<path d="M48 24L57.9304 41.8515" stroke="#0B26A4" stroke-width="3" stroke-linecap="round"/>
<path d="M48 67.7259L58.1888 50" stroke="#0B26A4" stroke-width="3" stroke-linecap="round"/>
</svg>
